<?xml version="1.0" encoding="utf-8"?>
<!-- Generator: Adobe Illustrator 26.0.1, SVG Export Plug-In . SVG Version: 6.00 Build 0)  -->
<svg version="1.1" id="Layer_1" xmlns="http://www.w3.org/2000/svg" xmlns:xlink="http://www.w3.org/1999/xlink" x="0px" y="0px"
	 viewBox="0 0 88 85.16" style="enable-background:new 0 0 88 85.16;" xml:space="preserve">
<style type="text/css">
	.st0{fill:#4C4E4D;}
</style>
<g>
	<path class="st0" d="M72.26,65.88c-1.99,1.88-3.33,3.13-4.96,4.67c-1.72-1.7-3.44-3.4-5.15-5.09c-3.98-3.92-7.99-7.81-11.93-11.77
		c-1.07-1.07-1.82-1.21-3.24-0.39c-7.62,4.43-15.35,3.99-22.37-0.97c-7.39-5.22-10.28-12.85-8.2-21.68
		c1.92-8.16,7.29-13.64,15.58-15.46c8.74-1.92,16.24,0.85,21.47,8.08c5,6.91,5.34,14.59,1.27,22.14c-1.04,1.93-0.72,2.87,0.68,4.19
		C60.94,54.87,66.4,60.22,72.26,65.88z M36.79,49.98c8.12-0.14,14.57-6.66,14.49-14.65c-0.08-8.18-6.74-14.69-14.89-14.56
		c-8.25,0.14-14.6,6.72-14.46,14.98C22.07,43.8,28.66,50.12,36.79,49.98z"/>
</g>
</svg>
